<svg width="39" height="45" viewBox="0 0 39 45" fill="none" xmlns="http://www.w3.org/2000/svg">
<path d="M19.4147 12.9295C17.5607 12.9295 14.6909 10.9085 11.6686 10.9816C7.68129 11.0303 4.02412 13.1974 1.96696 16.6307C-2.17276 23.5215 0.900279 33.6996 4.93841 39.3C6.91938 42.0271 9.25591 45.0951 12.3544 44.9977C15.3258 44.876 16.4433 43.1472 20.0497 43.1472C23.6306 43.1472 24.6465 44.9977 27.7958 44.9247C30.9958 44.876 33.0276 42.1489 34.9831 39.3974C37.2435 36.2319 38.1832 33.1639 38.234 32.9935C38.1578 32.9691 32.0117 30.7046 31.9355 23.8868C31.8847 18.189 36.7863 15.4619 37.0149 15.3401C34.2212 11.4199 29.9291 10.9816 28.4307 10.8842C24.5195 10.592 21.2433 12.9295 19.4147 12.9295ZM26.018 7.18308C27.6688 5.28383 28.7608 2.62974 28.4561 0C26.0942 0.0973977 23.2497 1.50966 21.5481 3.40892C20.0243 5.08903 18.7036 7.79182 19.0592 10.3729C21.6751 10.5677 24.3672 9.08234 26.018 7.18308Z" fill="white"/>
</svg>
