<svg width="20" height="21" viewBox="0 0 20 21" fill="none" xmlns="http://www.w3.org/2000/svg">
<path fill-rule="evenodd" clip-rule="evenodd" d="M10 18.4358C12.1217 18.4358 14.1566 17.6067 15.6569 16.1309C17.1571 14.655 18 12.6533 18 10.5662C18 8.47903 17.1571 6.47735 15.6569 5.0015C14.1566 3.52566 12.1217 2.69653 10 2.69653C7.87827 2.69653 5.84344 3.52566 4.34315 5.0015C2.84285 6.47735 2 8.47903 2 10.5662C2 12.6533 2.84285 14.655 4.34315 16.1309C5.84344 17.6067 7.87827 18.4358 10 18.4358V18.4358ZM13.707 9.29425C13.8892 9.10873 13.99 8.86024 13.9877 8.60231C13.9854 8.34439 13.8802 8.09766 13.6948 7.91528C13.5094 7.73289 13.2586 7.62943 12.9964 7.62719C12.7342 7.62495 12.4816 7.7241 12.293 7.90329L9 11.1426L7.707 9.87071C7.5184 9.69152 7.2658 9.59236 7.0036 9.59461C6.7414 9.59685 6.49059 9.7003 6.30518 9.88269C6.11977 10.0651 6.0146 10.3118 6.01233 10.5697C6.01005 10.8277 6.11084 11.0761 6.293 11.2617L8.293 13.2291C8.48053 13.4135 8.73484 13.5171 9 13.5171C9.26516 13.5171 9.51947 13.4135 9.707 13.2291L13.707 9.29425V9.29425Z" fill="white"/>
</svg>
