<svg width="123" height="36" viewBox="0 0 123 36" fill="none" xmlns="http://www.w3.org/2000/svg">
<g opacity="0.5" clip-path="url(#clip0_49_387)">
<path d="M13.7868 21.8001C13.7868 22.602 13.6172 23.3471 13.278 24.0361C12.9388 24.7154 12.4582 25.3001 11.855 25.7721C11.2425 26.2532 10.517 26.6211 9.67803 26.8851C8.83943 27.1492 7.91603 27.2813 6.91703 27.2813C5.72003 27.2813 4.64603 27.1209 3.70403 26.7908C2.76173 26.47 1.81003 25.9228 0.858032 25.1678L2.43203 22.6108C3.18583 23.2429 3.86403 23.7048 4.47703 23.9978C5.08013 24.2903 5.70203 24.4318 6.34303 24.4318C7.12513 24.4318 7.74703 24.2336 8.22803 23.828C8.70863 23.4223 8.93473 22.8846 8.93473 22.196C8.93473 21.9036 8.88761 21.63 8.80283 21.3753C8.71802 21.1205 8.55783 20.8564 8.33173 20.5828C8.10553 20.3187 7.78523 20.0168 7.38003 19.7055C6.98423 19.3941 6.46603 18.9979 5.82503 18.5355C5.34443 18.1959 4.86393 17.8374 4.40203 17.4785C3.94033 17.1106 3.52573 16.7238 3.13903 16.3085C2.76213 15.8934 2.46063 15.4312 2.22503 14.9125C1.99883 14.4031 1.87643 13.8085 1.87643 13.1575C1.87643 12.4028 2.03663 11.7045 2.34753 11.0815C2.65843 10.4585 3.09193 9.9305 3.63853 9.4875C4.18503 9.0441 4.83553 8.7045 5.60753 8.4595C6.37073 8.2142 7.19953 8.0916 8.10453 8.0916C9.05623 8.0916 9.97053 8.2142 10.8555 8.469C11.7412 8.7237 12.5615 9.0916 13.3245 9.582L11.9015 11.884C10.931 11.2047 9.90353 10.856 8.82953 10.856C8.17933 10.856 7.63253 11.0258 7.20853 11.3654C6.78453 11.705 6.56773 12.1296 6.56773 12.6484C6.56773 13.139 6.75623 13.5824 7.13313 13.9694C7.51003 14.3656 8.16013 14.9034 9.08413 15.6204C10.017 16.2997 10.7901 16.9034 11.3931 17.4124C12.0056 17.9218 12.4861 18.4124 12.8441 18.8654C13.2022 19.3183 13.4378 19.7711 13.5791 20.2424C13.7204 20.7235 13.7864 21.2329 13.7864 21.7994L13.7868 21.8001ZM29.9468 17.4891C29.9468 18.1966 29.8714 18.9611 29.7207 19.7811C29.5793 20.6019 29.3249 21.3571 28.9669 22.0551C28.6088 22.7532 28.1471 23.3291 27.5719 23.7721C26.9971 24.2249 26.2619 24.4513 25.3859 24.4513C23.9159 24.4513 22.7569 23.8664 21.9089 22.6873C21.0608 21.5173 20.6369 19.9043 20.6369 17.8573C20.6369 15.7533 21.0609 14.0933 21.9279 12.8573C22.7854 11.6213 23.9539 11.0083 25.4239 11.0083C26.8189 11.0083 27.9209 11.5932 28.7309 12.7443C29.5413 13.9043 29.9469 15.4893 29.9469 17.4893L29.9468 17.4891ZM35.0538 17.3098C35.0538 15.9418 34.8559 14.6968 34.4696 13.5838C34.0738 12.4608 33.5273 11.4988 32.8016 10.6878C32.0761 9.8765 31.2276 9.2538 30.2386 8.8008C29.2496 8.3478 28.1566 8.1216 26.9596 8.1216C25.6406 8.1216 24.4816 8.3763 23.4826 8.8669C22.4838 9.3669 21.5506 10.1499 20.7026 11.2249L20.6744 8.5549H15.9724V35.9949H20.6654V24.4049C21.1271 24.9426 21.5699 25.3954 22.0034 25.7629C22.4274 26.1308 22.8609 26.4327 23.3034 26.6591C23.7462 26.8855 24.2079 27.0553 24.6974 27.1497C25.1874 27.244 25.7154 27.2912 26.2714 27.2912C27.5154 27.2912 28.6834 27.0364 29.7574 26.5459C30.8314 26.0459 31.7644 25.3479 32.5464 24.4419C33.3284 23.5359 33.9414 22.4799 34.3844 21.2819C34.8367 20.0739 35.0534 18.7439 35.0534 17.3099L35.0538 17.3098ZM37.1458 26.8478H41.9698V-0.00219727H37.1458V26.8478ZM62.5458 26.8572V8.5372H57.7218V18.3952C57.7218 19.2726 57.6841 19.9522 57.6087 20.4332C57.5333 20.9143 57.4108 21.3388 57.2412 21.7352C56.5628 23.2442 55.3092 24.0092 53.4912 24.0092C52.0682 24.0092 51.0792 23.4998 50.5132 22.4712C50.2871 22.0844 50.1363 21.641 50.0515 21.1502C49.9667 20.6597 49.9196 19.9522 49.9196 19.0182V8.5382H45.0956V18.9482C45.0956 19.6557 45.105 20.2592 45.1145 20.7402C45.1239 21.2213 45.1616 21.6647 45.2087 22.0422C45.2558 22.4196 45.3123 22.7592 45.3783 23.0522C45.4348 23.3446 45.5291 23.6276 45.6516 23.8918C46.0944 25.0148 46.8016 25.8638 47.7906 26.4388C48.78 27.0142 49.9956 27.2973 51.4276 27.2973C52.7186 27.2973 53.8586 27.0708 54.8386 26.618C55.8186 26.1652 56.7706 25.429 57.6936 24.401L57.703 26.854L62.546 26.8634L62.5458 26.8572ZM83.3358 26.8478V16.4578C83.3358 15.7502 83.3264 15.1468 83.3169 14.6468C83.3075 14.1468 83.2793 13.7129 83.2227 13.3448C83.1756 12.9768 83.1097 12.6561 83.0437 12.3825C82.9683 12.0995 82.8835 11.8259 82.7893 11.5617C82.3464 10.4677 81.6393 9.6187 80.6503 9.0237C79.6613 8.4287 78.4453 8.1275 77.0033 8.1275C75.7123 8.1275 74.5723 8.3539 73.5923 8.8067C72.6123 9.2595 71.6603 10.0047 70.7373 11.0237L70.7279 8.5707H65.8749V26.8507H70.7369V16.9827C70.7369 16.1336 70.7652 15.4637 70.8311 14.9917C70.8876 14.52 71.0102 14.0766 71.1798 13.6517C71.4907 12.9158 71.9807 12.3687 72.6308 11.9917C73.2809 11.6147 74.0538 11.4257 74.9578 11.4257C76.3808 11.4257 77.3698 11.9351 77.9358 12.9637C78.1526 13.3505 78.3033 13.7939 78.3881 14.2747C78.4729 14.7559 78.52 15.4727 78.52 16.3977V26.8277L83.335 26.8372L83.3358 26.8478ZM103.296 25.6398L95.9468 16.4978L102.156 9.8378L98.4998 8.2628L92.0358 15.7628H91.527V0.00280273H86.665V26.8528H91.527V17.1268L98.801 27.2168L103.295 25.6408L103.296 25.6398ZM122.086 19.0738V16.0828L107.466 8.7428V12.0348L118.796 17.5538L107.466 23.1478V26.3648L122.086 19.0728V19.0738ZM108.886 3.9938C107.991 3.9938 107.265 4.7296 107.265 5.6358C107.265 6.5603 107.991 7.2868 108.886 7.2868C109.791 7.2868 110.507 6.5604 110.507 5.6358C110.507 4.7207 109.791 3.9938 108.886 3.9938V3.9938ZM108.896 4.2485C109.621 4.2485 110.205 4.8711 110.205 5.6445C110.205 6.4181 109.621 7.0405 108.896 7.0315C108.161 7.0315 107.576 6.4183 107.576 5.6355C107.576 4.8713 108.161 4.2485 108.896 4.2485ZM108.585 5.8055H108.782C109.018 5.8055 109.131 5.89041 109.178 6.1263C109.216 6.3716 109.263 6.532 109.301 6.5886H109.612C109.583 6.532 109.536 6.4188 109.499 6.1358C109.461 5.8622 109.357 5.7207 109.188 5.6924V5.67352C109.386 5.61692 109.546 5.46602 109.546 5.23012C109.546 5.06032 109.489 4.92822 109.376 4.85272C109.263 4.76782 109.084 4.71122 108.811 4.71122C108.594 4.71122 108.443 4.73009 108.293 4.75839V6.58839H108.585V5.80539V5.8055ZM108.585 4.9564C108.632 4.94697 108.698 4.93754 108.792 4.93754C109.122 4.93754 109.235 5.09794 109.235 5.25834C109.235 5.48474 109.027 5.56964 108.792 5.56964H108.585V4.95644V4.9564Z" fill="white"/>
</g>
<defs>
<clipPath id="clip0_49_387">
<rect width="122" height="36" fill="white" transform="translate(0.856812)"/>
</clipPath>
</defs>
</svg>
