<svg width="98" height="40" viewBox="0 0 98 40" fill="none" xmlns="http://www.w3.org/2000/svg">
<g opacity="0.5" clip-path="url(#clip0_49_367)">
<path d="M90.0508 28.0163C89.7904 28.0163 89.6111 27.8358 89.6111 27.5762V14.6805H85.2303C84.9698 14.6805 84.7902 14.5008 84.7902 14.2409V12.4621C84.7902 12.2016 84.9699 12.0214 85.2303 12.0214H96.8911C97.1513 12.0214 97.3304 12.2018 97.3304 12.4621V14.2408C97.3304 14.5005 97.1513 14.6805 96.8911 14.6805H92.5107V27.576C92.5107 27.8358 92.3304 28.0163 92.0709 28.0163H90.0508ZM56.4936 21.5781L54.194 14.9808L51.8738 21.5781H56.4936ZM61.5939 27.4953C61.6944 27.7559 61.5341 28.0163 61.254 28.0163H59.1743C58.8741 28.0163 58.6939 27.8768 58.5936 27.5956L57.4141 24.1979H50.9544L49.7728 27.5956C49.6736 27.8769 49.4929 28.0163 49.1935 28.0163H47.2341C46.9737 28.0163 46.7934 27.7558 46.8935 27.4953L52.3136 12.4221C52.4139 12.1413 52.5938 12.0221 52.8932 12.0221H55.5734C55.8737 12.0221 56.0737 12.1414 56.1736 12.4221L61.5939 27.4953ZM77.1299 25.8567C78.4094 25.8567 79.2698 25.2379 79.97 24.1778L76.7305 20.6985C75.4899 21.3988 74.6894 22.0977 74.6894 23.4976C74.6896 24.8774 75.8091 25.8567 77.1299 25.8567ZM78.0298 14.1406C76.9901 14.1406 76.3901 14.801 76.3901 15.6805C76.3901 16.3602 76.7494 16.9601 77.5697 17.84C78.9896 17.0198 79.59 16.5202 79.59 15.6407C79.59 14.8204 79.0702 14.1406 78.0298 14.1406ZM86.8908 27.4565C87.1505 27.7366 86.9909 28.0163 86.6699 28.0163H84.1299C83.79 28.0163 83.61 27.936 83.3901 27.6758L81.8701 25.9971C80.8503 27.3567 79.429 28.3761 77.0695 28.3761C74.1496 28.3761 71.8488 26.6168 71.8488 23.5984C71.8488 21.2785 73.0895 20.0386 74.9699 18.9992C74.0491 17.9397 73.6299 16.82 73.6299 15.8408C73.6299 13.361 75.3698 11.6619 77.9894 11.6619C80.6696 11.6619 82.3099 13.2419 82.3099 15.5806C82.3099 17.5799 80.8702 18.6985 79.3496 19.5389L81.5901 21.9588L82.8499 19.7588C83.0097 19.4993 83.1899 19.3989 83.5094 19.3989H85.4491C85.7696 19.3989 85.9496 19.6194 85.7502 19.9591L83.5097 23.7972L86.8908 27.4565ZM66.9307 28.0163C67.1907 28.0163 67.3715 27.8358 67.3715 27.5762V14.6805H71.751C72.011 14.6805 72.1908 14.5008 72.1908 14.2409V12.4621C72.1908 12.2016 72.011 12.0214 71.751 12.0214H60.0902C59.8299 12.0214 59.6502 12.2018 59.6502 12.4621V14.2408C59.6502 14.5005 59.83 14.6805 60.0902 14.6805H64.4697V27.576C64.4697 27.8358 64.6503 28.0163 64.91 28.0163H66.9307Z" fill="white"/>
<path d="M7.73845 35.7947C11.1304 38.4204 15.3879 39.998 20.007 39.998C25.0619 39.998 29.6701 38.1213 33.1871 35.0406C33.2297 35.003 33.2087 34.9781 33.1667 35.003C31.5885 36.057 27.0905 38.3577 20.0072 38.3577C13.8515 38.3577 9.96137 36.9843 7.76452 35.7581C7.72249 35.7373 7.70692 35.7689 7.73845 35.7947ZM21.3651 36.817C26.2885 36.817 31.6987 35.4749 34.9345 32.8182C35.82 32.0943 36.6634 31.1309 37.4188 29.8362C37.8537 29.0912 38.279 28.2061 38.6254 27.3361C38.6408 27.2937 38.6146 27.2731 38.5827 27.3208C35.5736 31.7489 26.8601 34.5109 17.8629 34.5109C11.5034 34.5109 4.6606 32.4772 1.98161 28.5941C1.95524 28.5582 1.92887 28.5736 1.94493 28.6148C4.4406 33.9193 12.0119 36.817 21.3651 36.817ZM15.9858 28.0172C5.74604 28.0172 0.91778 23.2481 0.0419402 19.9935C0.0311394 19.9464 9.91821e-05 19.9567 9.91821e-05 19.9991C9.91821e-05 21.0947 0.109762 22.5087 0.298435 23.4472C0.388442 23.904 0.760243 24.621 1.30534 25.1924C3.78486 27.7769 9.96663 31.3984 20.6725 31.3984C35.2587 31.3984 38.5939 26.5396 39.2749 24.9418C39.7619 23.799 40.0142 21.7339 40.0142 19.9992C40.0142 19.5794 40.0037 19.2441 39.9878 18.9149C39.9878 18.8615 39.9569 18.8571 39.9462 18.9092C39.2173 22.819 26.755 28.0172 15.9858 28.0172ZM1.92887 11.4195C1.34212 12.584 0.691741 14.5485 0.498396 15.5652C0.413644 16.0008 0.449744 16.21 0.602512 16.5351C1.82982 19.1391 8.03776 23.3055 22.5184 23.3055C31.3527 23.3055 38.2154 21.1351 39.3272 17.1745C39.532 16.4454 39.543 15.6756 39.2799 14.6384C38.9861 13.4793 38.4357 12.1276 37.9699 11.1785C37.9546 11.1476 37.9274 11.1521 37.933 11.1887C38.106 16.3834 23.6195 19.7314 16.3103 19.7314C8.39311 19.7314 1.78797 16.577 1.78797 12.5939C1.78797 12.2112 1.86718 11.8284 1.96604 11.43C1.97597 11.3936 1.94483 11.3876 1.92887 11.4195ZM33.2195 5.0415C33.3036 5.17325 33.3455 5.31386 33.3455 5.50311C33.3455 7.72516 26.5448 11.6561 15.719 11.6561C7.76452 11.6561 6.27528 8.70522 6.27528 6.8286C6.27528 6.15778 6.53255 5.47139 7.09916 4.7743C7.1301 4.73285 7.10383 4.71689 7.06812 4.74774C6.03474 5.62348 5.08524 6.60888 4.25231 7.67262C3.85434 8.17568 3.60728 8.62134 3.60728 8.88834C3.60728 12.7773 13.3588 15.597 22.4767 15.597C32.192 15.597 36.5279 12.4255 36.5279 9.63827C36.5279 8.64216 36.1401 8.06067 35.1482 6.9333C34.5043 6.19991 33.8953 5.60276 33.2507 5.01494C33.2195 4.98925 33.1978 5.01017 33.2195 5.0415ZM30.2411 2.81994C27.2428 1.02272 23.7609 0.000244141 20.0072 0.000244141C16.2273 0.000244141 12.6406 1.05843 9.63141 2.90323C8.72881 3.45874 8.22079 3.90391 8.22079 4.47616C8.22079 6.16304 12.1631 7.97679 19.1572 7.97679C26.0788 7.97679 31.4473 5.99012 31.4473 4.0778C31.4473 3.62134 31.0484 3.30199 30.2411 2.81994Z" fill="white"/>
</g>
<defs>
<clipPath id="clip0_49_367">
<rect width="97.3305" height="40" fill="white"/>
</clipPath>
</defs>
</svg>
