<svg width="151" height="32" viewBox="0 0 151 32" fill="none" xmlns="http://www.w3.org/2000/svg">
<g opacity="0.5" clip-path="url(#clip0_49_389)">
<path d="M63.2568 6.40001V25.6H59.9234V10.5333H59.879L53.9234 25.6H51.7012L45.6123 10.5333H45.5679V25.6H42.5012V6.40001H47.3012L52.8123 20.6222H52.9012L58.7234 6.40001H63.2568ZM66.0123 7.86667C66.0123 7.33334 66.1901 6.88889 66.5901 6.53334C66.9901 6.17778 67.4346 6.00001 67.9679 6.00001C68.5457 6.00001 69.0346 6.17778 69.3901 6.53334C69.7457 6.88889 69.9679 7.33334 69.9679 7.86667C69.9679 8.40001 69.7901 8.84445 69.3901 9.20001C68.9901 9.55556 68.5457 9.73334 67.9679 9.73334C67.3901 9.73334 66.9457 9.55556 66.5901 9.20001C66.2346 8.80001 66.0123 8.35556 66.0123 7.86667ZM69.6123 11.8222V25.6H66.3679V11.8222H69.6123ZM79.4346 23.2444C79.9234 23.2444 80.4568 23.1556 81.0346 22.8889C81.6123 22.6667 82.1457 22.3556 82.6346 22V25.0222C82.1012 25.3333 81.5234 25.5556 80.8568 25.6889C80.1901 25.8222 79.479 25.9111 78.679 25.9111C76.6346 25.9111 74.9901 25.2889 73.7457 24C72.4568 22.7111 71.8346 21.0667 71.8346 19.1111C71.8346 16.8889 72.5012 15.0667 73.7901 13.6444C75.079 12.2222 76.9012 11.5111 79.3012 11.5111C79.9234 11.5111 80.5457 11.6 81.1235 11.7333C81.7457 11.8667 82.2346 12.0889 82.5901 12.2667V15.3778C82.1012 15.0222 81.5679 14.7111 81.079 14.5333C80.5457 14.3556 80.0123 14.2222 79.479 14.2222C78.1901 14.2222 77.1679 14.6222 76.3679 15.4667C75.5679 16.3111 75.2123 17.4222 75.2123 18.8444C75.2123 20.2222 75.6123 21.3333 76.3679 22.0889C77.1234 22.8444 78.1457 23.2444 79.4346 23.2444ZM91.8346 11.6C92.1012 11.6 92.3234 11.6 92.5457 11.6444C92.7679 11.6889 92.9457 11.7333 93.079 11.7778V15.0667C92.9012 14.9333 92.679 14.8 92.3234 14.7111C91.9679 14.6222 91.6123 14.5333 91.1235 14.5333C90.3235 14.5333 89.6568 14.8889 89.1235 15.5556C88.5901 16.2222 88.279 17.2444 88.279 18.6667V25.6H85.0346V11.8222H88.279V14H88.3234C88.6346 13.2444 89.079 12.6667 89.6568 12.2222C90.279 11.8222 90.9901 11.6 91.8346 11.6ZM93.2568 18.9333C93.2568 16.6667 93.9234 14.8444 95.1679 13.5111C96.4568 12.1778 98.2346 11.5111 100.501 11.5111C102.635 11.5111 104.323 12.1333 105.523 13.4222C106.723 14.7111 107.346 16.4444 107.346 18.6222C107.346 20.8444 106.679 22.6222 105.435 23.9556C104.146 25.2889 102.412 25.9556 100.19 25.9556C98.0568 25.9556 96.3679 25.3333 95.1235 24.0889C93.879 22.8 93.2568 21.0667 93.2568 18.9333ZM96.6346 18.8C96.6346 20.2222 96.9457 21.3333 97.6123 22.0889C98.279 22.8444 99.2123 23.2444 100.412 23.2444C101.568 23.2444 102.501 22.8889 103.123 22.0889C103.746 21.3333 104.057 20.2222 104.057 18.7111C104.057 17.2444 103.746 16.1333 103.123 15.3333C102.501 14.5778 101.568 14.1778 100.457 14.1778C99.2568 14.1778 98.3679 14.5778 97.7012 15.3778C96.9457 16.2222 96.6346 17.3333 96.6346 18.8ZM112.19 15.4667C112.19 15.9111 112.323 16.3111 112.635 16.5778C112.946 16.8444 113.568 17.1556 114.59 17.5556C115.879 18.0889 116.812 18.6667 117.301 19.2889C117.835 19.9556 118.101 20.7111 118.101 21.6444C118.101 22.9333 117.612 23.9556 116.59 24.7556C115.612 25.5556 114.235 25.9111 112.546 25.9111C111.968 25.9111 111.346 25.8222 110.635 25.6889C109.923 25.5556 109.346 25.3778 108.857 25.1556V21.9556C109.435 22.3556 110.101 22.7111 110.768 22.9333C111.435 23.1556 112.057 23.2889 112.635 23.2889C113.346 23.2889 113.923 23.2 114.235 22.9778C114.59 22.7556 114.768 22.4444 114.768 21.9556C114.768 21.5111 114.59 21.1556 114.235 20.8C113.879 20.4889 113.168 20.1333 112.19 19.7333C110.99 19.2444 110.146 18.6667 109.657 18.0444C109.168 17.4222 108.901 16.6222 108.901 15.6444C108.901 14.4 109.39 13.3778 110.368 12.5778C111.346 11.7778 112.635 11.3778 114.19 11.3778C114.679 11.3778 115.212 11.4222 115.79 11.5556C116.368 11.6889 116.901 11.8222 117.301 11.9556V15.1111C116.857 14.8444 116.368 14.5778 115.79 14.3556C115.212 14.1333 114.635 14.0444 114.101 14.0444C113.479 14.0444 112.99 14.1778 112.679 14.4C112.368 14.7111 112.19 15.0222 112.19 15.4667ZM119.479 18.9333C119.479 16.6667 120.146 14.8444 121.39 13.5111C122.679 12.1778 124.457 11.5111 126.723 11.5111C128.857 11.5111 130.546 12.1333 131.746 13.4222C132.946 14.7111 133.568 16.4444 133.568 18.6222C133.568 20.8444 132.901 22.6222 131.657 23.9556C130.368 25.2889 128.635 25.9556 126.412 25.9556C124.279 25.9556 122.59 25.3333 121.346 24.0889C120.146 22.8 119.479 21.0667 119.479 18.9333ZM122.857 18.8C122.857 20.2222 123.168 21.3333 123.835 22.0889C124.501 22.8444 125.435 23.2444 126.635 23.2444C127.79 23.2444 128.723 22.8889 129.346 22.0889C129.968 21.3333 130.279 20.2222 130.279 18.7111C130.279 17.2444 129.968 16.1333 129.346 15.3333C128.723 14.5778 127.79 14.1778 126.679 14.1778C125.479 14.1778 124.59 14.5778 123.923 15.3778C123.212 16.2222 122.857 17.3333 122.857 18.8ZM144.368 14.4889H139.523V25.6H136.235V14.4889H133.923V11.8222H136.235V9.91112C136.235 8.48889 136.723 7.28889 137.657 6.35556C138.59 5.42223 139.79 4.97778 141.257 4.97778C141.657 4.97778 142.012 5.02223 142.323 5.02223C142.635 5.02223 142.901 5.11112 143.123 5.20001V8.00001C143.035 7.95556 142.812 7.86667 142.546 7.77778C142.279 7.68889 141.968 7.64445 141.612 7.64445C140.946 7.64445 140.412 7.86667 140.057 8.26667C139.701 8.66667 139.523 9.33334 139.523 10.1333V11.7778H144.368V8.66667L147.612 7.68889V11.7778H150.901V14.4444H147.612V20.8889C147.612 21.7333 147.79 22.3111 148.057 22.6667C148.368 23.0222 148.857 23.2 149.523 23.2C149.701 23.2 149.923 23.1556 150.19 23.0667C150.457 22.9778 150.679 22.8889 150.857 22.7556V25.4222C150.635 25.5556 150.323 25.6444 149.835 25.7333C149.346 25.8222 148.901 25.8667 148.412 25.8667C147.035 25.8667 146.012 25.5111 145.346 24.8C144.679 24.0889 144.323 22.9778 144.323 21.5111L144.368 14.4889Z" fill="white"/>
<path d="M16.0568 0H0.856812V15.2H16.0568V0Z" fill="white"/>
<path d="M32.8568 0H17.6568V15.2H32.8568V0Z" fill="white"/>
<path d="M16.0568 16.8H0.856812V32H16.0568V16.8Z" fill="white"/>
<path d="M32.8568 16.8H17.6568V32H32.8568V16.8Z" fill="white"/>
</g>
<defs>
<clipPath id="clip0_49_389">
<rect width="150.044" height="32" fill="white" transform="translate(0.856812)"/>
</clipPath>
</defs>
</svg>
