<svg width="141" height="22" viewBox="0 0 141 22" fill="none" xmlns="http://www.w3.org/2000/svg">
<g opacity="0.5" clip-path="url(#clip0_49_371)">
<path d="M60.4305 20.2L54.3305 3.09995C54.2305 2.89995 54.1305 2.59995 54.1305 2.29995C54.1305 1.59995 54.7305 0.799951 55.7305 0.799951C56.4305 0.799951 57.0305 1.29995 57.3305 2.09995L62.3305 16.7999L67.4305 1.99995C67.6305 1.29995 68.1305 0.699951 68.9305 0.699951H69.1305C69.9305 0.699951 70.5305 1.19995 70.7305 1.99995L75.7305 16.7999L80.8305 1.99995C81.0305 1.39995 81.4305 0.799951 82.3305 0.799951C83.2305 0.799951 83.8305 1.39995 83.8305 2.19995C83.8305 2.49995 83.7305 2.79995 83.6305 2.99995L77.4305 20.1C77.1305 21 76.5305 21.5 75.7305 21.5H75.6305C74.9305 21.5 74.2305 21.1 73.9305 20.1L68.9305 5.59995L63.9305 20.1C63.6305 21 63.1305 21.5 62.2305 21.5H62.1305C61.3305 21.6 60.7305 21 60.4305 20.2Z" fill="white"/>
<path d="M105.03 2.40005C105.03 1.60005 105.63 0.800049 106.53 0.800049C107.33 0.800049 108.13 1.40005 108.13 2.40005V5.90005C109.63 2.50005 112.93 1.00005 115.03 1.00005C115.93 1.00005 116.53 1.60005 116.53 2.60005C116.53 3.40005 116.03 4.00005 115.13 4.20005C111.23 4.60005 108.03 7.60005 108.03 13.4V20.2001C108.03 21.0001 107.43 21.8 106.53 21.8C105.73 21.8 104.93 21.2001 104.93 20.2001V2.40005" fill="white"/>
<path d="M126.23 21.7001C120.83 21.7001 116.43 17.5 116.43 11.3V11.2C116.43 5.40005 120.43 0.800049 125.93 0.800049C131.83 0.800049 135.13 5.60005 135.13 11C135.13 11.8 134.53 12.4 133.73 12.4H119.33C119.73 16.7 122.83 19.2001 126.33 19.2001C128.73 19.2001 130.63 18.3 132.03 16.9C132.23 16.7 132.53 16.6 132.83 16.6C133.53 16.6 134.13 17.2 134.13 17.9C134.13 18.2 134.03 18.6 133.73 18.8C131.83 20.5 129.63 21.7001 126.23 21.7001ZM132.13 10.1C131.83 6.40005 129.73 3.30005 125.83 3.30005C122.33 3.30005 119.73 6.20005 119.43 10.1H132.13Z" fill="white"/>
<path d="M83.7305 15.5C83.7305 11.2 87.2305 8.90005 92.3305 8.90005C94.9305 8.90005 96.7305 9.20005 98.5305 9.70005V9.00005C98.5305 5.30005 96.3305 3.60005 92.5305 3.60005C90.5305 3.60005 89.3305 3.80005 87.8305 4.50005C87.6305 4.60005 87.4305 4.60005 87.3305 4.60005C86.6305 4.60005 85.9305 4.00005 85.9305 3.30005C85.9305 2.60005 86.2305 2.30005 86.7305 2.00005C88.7305 1.20005 90.2305 0.800049 92.8305 0.800049C95.6305 0.800049 97.8305 1.50005 99.3305 3.00005C100.73 4.40005 101.43 6.40005 101.43 8.90005V20C101.43 20.8 100.83 21.5 99.9305 21.5C99.1305 21.5 98.4305 20.9 98.4305 20.1V18.1C97.0305 20 94.6305 21.6 91.1305 21.6C87.5305 21.7 83.7305 19.6 83.7305 15.5ZM98.5305 13.9V11.9C97.0305 11.5 95.0305 11.1 92.5305 11.1C88.7305 11.1 86.6305 12.8 86.6305 15.3V15.4C86.6305 17.9 88.9305 19.4 91.6305 19.4C95.5305 19.4 98.5305 17.1 98.5305 13.9Z" fill="white"/>
<path d="M5.83045 2.10004C5.23045 0.600039 3.53045 3.92497e-05 2.03045 0.600039C0.530454 1.20004 -0.069546 3.00004 0.730454 4.40004L7.13045 18.3C8.13045 20.5 9.23045 21.7 11.2305 21.7C13.3305 21.7 14.2305 20.4 15.3305 18.3C15.3305 18.3 20.9305 6.10004 21.0305 6.00004C21.1305 5.90004 21.2305 5.50004 21.8305 5.50004C22.3305 5.50004 22.6305 5.90004 22.6305 6.40004V18.2C22.6305 20 23.6305 21.6 25.5305 21.6C27.5305 21.6 28.5305 20.1 28.5305 18.2V8.60004C28.5305 6.70004 29.9305 5.50004 31.6305 5.50004C33.4305 5.50004 34.6305 6.80004 34.6305 8.60004V18.3C34.6305 20.1 35.6305 21.7 37.5305 21.7C39.5305 21.7 40.5305 20.2 40.5305 18.3V8.60004C40.5305 6.70004 41.9305 5.50004 43.6305 5.50004C45.4305 5.50004 46.6305 6.80004 46.6305 8.60004V18.3C46.6305 20.1 47.6305 21.7 49.5305 21.7C51.5305 21.7 52.5305 20.2 52.5305 18.3V7.30004C52.5305 3.20004 49.3305 0.400039 45.3305 0.400039C41.3305 0.400039 38.9305 3.10004 38.9305 3.10004C37.5305 1.40004 35.8305 0.400039 32.7305 0.400039C29.5305 0.400039 26.6305 3.10004 26.6305 3.10004C25.3305 1.40004 23.0305 0.400039 21.3305 0.400039C18.5305 0.400039 16.2305 1.70004 14.8305 4.80004L10.7305 14.4L5.83045 2.10004Z" fill="white"/>
<path d="M135.23 3.30005C135.23 1.90005 136.43 0.800049 137.73 0.800049C139.13 0.800049 140.23 2.00005 140.23 3.30005C140.23 4.70005 139.03 5.80005 137.73 5.80005C136.33 5.80005 135.23 4.70005 135.23 3.30005ZM139.73 3.30005C139.73 2.10005 138.93 1.30005 137.73 1.30005C136.53 1.30005 135.73 2.20005 135.73 3.30005C135.73 4.50005 136.53 5.30005 137.73 5.30005C138.93 5.30005 139.73 4.40005 139.73 3.30005Z" fill="white"/>
<path d="M138.73 3.4C138.63 3.5 138.43 3.6 138.23 3.7L138.83 4.6H138.33L137.73 3.7H137.33V4.6H136.83V2H137.93C138.13 2 138.23 2 138.43 2.1C138.53 2.2 138.73 2.3 138.73 2.4C138.83 2.5 138.83 2.7 138.83 2.8C138.93 3.1 138.83 3.3 138.73 3.4ZM137.33 3.3H137.93C138.13 3.3 138.23 3.3 138.33 3.2C138.43 3.1 138.43 3 138.43 2.9C138.43 2.8 138.33 2.7 138.33 2.6C138.23 2.5 138.13 2.5 137.93 2.5H137.33V3.3Z" fill="white"/>
</g>
<defs>
<clipPath id="clip0_49_371">
<rect width="140" height="22" fill="white" transform="translate(0.33046)"/>
</clipPath>
</defs>
</svg>
