<svg width="99" height="36" viewBox="0 0 99 36" fill="none" xmlns="http://www.w3.org/2000/svg">
<g opacity="0.5" clip-path="url(#clip0_49_381)">
<path d="M0.370239 17.0432C0.370239 27.5982 8.99571 35.7607 19.1098 35.7607C29.2227 35.7607 37.8494 27.5982 37.8494 17.0432C37.8494 7.36303 31.1117 0.306396 23.6502 0.306396C21.9538 0.306396 20.2846 0.672712 19.1098 1.15587C17.9345 0.672712 16.2633 0.306396 14.57 0.306396C7.10666 0.306396 0.370239 7.36303 0.370239 17.0432ZM22.4483 12.1839C22.4483 14.234 21.0949 15.8496 19.1105 15.8496C17.1273 15.8496 15.7726 14.234 15.7726 12.1839C15.7726 9.3885 17.6723 6.90766 19.1105 6.0544C20.5492 6.90829 22.4483 9.3885 22.4483 12.1839ZM4.97761 16.9536C4.97761 9.66892 10.2342 4.69145 14.3654 4.8765C12.4075 6.82682 11.2214 9.66829 11.2214 12.4157C11.2214 17.1456 14.9742 20.462 19.1098 20.462C23.2435 20.462 26.9989 17.1456 26.9989 12.4157C26.9989 9.66829 25.8128 6.82682 23.8549 4.8765C27.986 4.69145 33.2433 9.66892 33.2433 16.9536C33.2433 24.9285 26.8441 31.1508 19.1105 31.1508C11.3761 31.1502 4.97761 24.9285 4.97761 16.9536Z" fill="white"/>
<path d="M55.2532 7.9939V11.6994H57.3229V18.5135L51.7637 7.9939H45.3475V11.6994H47.4166V23.0368H45.3475V26.7404H53.8334V23.0368H51.7637V16.2221L57.3229 26.7404H61.67V11.6994H63.7385V7.9939H55.2532Z" fill="white"/>
<path d="M81.3696 15.194V7.99341H65.0509V15.194H68.7557V11.6989H70.7496V23.0364H68.0433V26.738H78.3778V23.0364H75.6709V11.6989H77.666V15.194H81.3696Z" fill="white"/>
<path d="M98.9522 15.194V7.99341H82.6353V15.194H86.3376V11.6989H88.3322V23.0364H85.6265V26.738H95.9585V23.0364H93.2541V11.6989H95.2473V15.194H98.9522Z" fill="white"/>
</g>
<defs>
<clipPath id="clip0_49_381">
<rect width="98.5263" height="36" fill="white" transform="translate(0.330444)"/>
</clipPath>
</defs>
</svg>
