<svg width="19" height="21" viewBox="0 0 19 21" fill="none" xmlns="http://www.w3.org/2000/svg">
<path d="M16 6.5H18C18.2652 6.5 18.5196 6.60536 18.7071 6.79289C18.8946 6.98043 19 7.23478 19 7.5V19.5C19 19.7652 18.8946 20.0196 18.7071 20.2071C18.5196 20.3946 18.2652 20.5 18 20.5H10C9.73478 20.5 9.48043 20.3946 9.29289 20.2071C9.10536 20.0196 9 19.7652 9 19.5V18.5H1C0.734784 18.5 0.48043 18.3946 0.292893 18.2071C0.105357 18.0196 0 17.7652 0 17.5V1.5C0 1.23478 0.105357 0.98043 0.292893 0.792893C0.48043 0.605357 0.734784 0.5 1 0.5H15C15.2652 0.5 15.5196 0.605357 15.7071 0.792893C15.8946 0.98043 16 1.23478 16 1.5V6.5ZM14 6.5V2.5H2V16.5H9V7.5C9 7.23478 9.10536 6.98043 9.29289 6.79289C9.48043 6.60536 9.73478 6.5 10 6.5H14ZM11 8.5V18.5H17V8.5H11Z" fill="white"/>
</svg>
