<svg width="23" height="32" viewBox="0 0 23 32" fill="none" xmlns="http://www.w3.org/2000/svg">
<path d="M13.9793 14.6762C13.9793 15.3134 14.8217 15.8256 15.8601 15.8256C16.8986 15.8256 17.741 15.3102 17.741 14.6762C17.741 14.0422 16.8986 13.5269 15.8601 13.5269C14.8217 13.5269 13.9793 14.0414 13.9793 14.6762ZM0 9.56272H2.26383V7.39307H0V9.56272ZM15.4713 7.39307H4.97877V9.56272H16.9916V7.39307H15.4713ZM4.43379 14.6762C4.43379 14.039 5.27618 13.5269 6.31464 13.5269C7.3531 13.5269 8.19549 14.0414 8.19549 14.6762C8.19549 15.311 7.35393 15.8256 6.31381 15.8256C5.27369 15.8256 4.43296 15.3102 4.43296 14.6762H4.43379ZM19.9109 7.39387V21.3708C19.9085 23.6137 18.9781 25.7642 17.3239 27.3503C15.6698 28.9364 13.4269 29.8286 11.0874 29.8311V26.0972H8.79281C8.65864 26.0972 8.52596 26.0702 8.40336 26.0179C8.28076 25.9657 8.17096 25.8893 8.08106 25.7938C7.99117 25.6984 7.92318 25.5858 7.8815 25.4636C7.83982 25.3413 7.82537 25.212 7.83909 25.084C7.86922 24.8523 7.98773 24.6394 8.1718 24.4865C8.35587 24.3335 8.59247 24.2513 8.83601 24.2557H11.089V22.145C11.089 21.9916 11.0255 21.8445 10.9124 21.7361C10.7993 21.6276 10.6459 21.5667 10.4859 21.5667H9.28379C9.13087 21.5657 8.98065 21.528 8.84689 21.4569C8.71313 21.3859 8.60011 21.2838 8.51818 21.1599C8.43626 21.0361 8.38805 20.8946 8.37797 20.7483C8.3679 20.602 8.39627 20.4556 8.4605 20.3226L10.3713 16.4325C10.8429 15.472 11.0874 14.4236 11.0874 13.362V11.0896H0V21.3708C0 24.1898 1.16804 26.8934 3.24718 28.8868C5.32631 30.8801 8.14621 32 11.0866 32C14.0269 32 16.8468 30.8801 18.9259 28.8868C21.0051 26.8934 22.1731 24.1898 22.1731 21.3708V7.39307L19.9109 7.39387ZM2.82875 5.86619H4.97877V3.69653H2.82875V5.86619ZM15.1847 3.69653H9.95588V5.86619H16.9908V3.69653H15.1847ZM14.7286 2.16886H16.9908V0H14.7286V2.16886Z" fill="white"/>
</svg>
