<svg width="20" height="21" viewBox="0 0 20 21" fill="none" xmlns="http://www.w3.org/2000/svg">
<path fill-rule="evenodd" clip-rule="evenodd" d="M7 2.72925C6.46957 2.72925 5.96086 2.93653 5.58579 3.30549C5.21071 3.67445 5 4.17487 5 4.69666V16.5011C5 17.0229 5.21071 17.5234 5.58579 17.8923C5.96086 18.2613 6.46957 18.4686 7 18.4686H13C13.5304 18.4686 14.0391 18.2613 14.4142 17.8923C14.7893 17.5234 15 17.0229 15 16.5011V4.69666C15 4.17487 14.7893 3.67445 14.4142 3.30549C14.0391 2.93653 13.5304 2.72925 13 2.72925H7ZM10 16.5011C10.2652 16.5011 10.5196 16.3975 10.7071 16.213C10.8946 16.0285 11 15.7783 11 15.5174C11 15.2565 10.8946 15.0063 10.7071 14.8219C10.5196 14.6374 10.2652 14.5337 10 14.5337C9.73478 14.5337 9.48043 14.6374 9.29289 14.8219C9.10536 15.0063 9 15.2565 9 15.5174C9 15.7783 9.10536 16.0285 9.29289 16.213C9.48043 16.3975 9.73478 16.5011 10 16.5011V16.5011Z" fill="white"/>
</svg>
