<svg width="186" height="32" viewBox="0 0 186 32" fill="none" xmlns="http://www.w3.org/2000/svg">
<path d="M42.8932 22.0997H35.3823L34.2192 25.0173H31.1761L37.4068 9.81299H40.8778L47.1085 25.0173H44.0654L42.8932 22.0997ZM36.164 19.7517H42.1115L39.1398 12.0703L36.164 19.7517Z" fill="white"/>
<path d="M48.1237 9.81299H51.2856L56.0882 22.122L60.8909 9.81299H64.0528L57.822 25.0173H54.3511L48.1237 9.81299Z" fill="white"/>
<path d="M76.7975 22.0997H69.2816L68.1185 25.0173H65.0754L71.3062 9.81299H74.778L81.0087 25.0173H77.9656L76.7975 22.0997ZM70.0683 19.7517H76.0108L73.0391 12.0703L70.0683 19.7517Z" fill="white"/>
<path d="M87.1156 12.1603H82.313V9.81299H94.7005V12.1611H89.8937V25.0165H87.1115L87.1156 12.1603Z" fill="white"/>
<path d="M107.706 22.0997H100.193L99.0296 25.0173H95.984L102.215 9.81299H105.686L111.916 25.0173H108.869L107.706 22.0997ZM100.977 19.7517H106.921L103.949 12.0703L100.977 19.7517Z" fill="white"/>
<path d="M121.328 19.3407H118.571V25.0165H115.787V9.81299H122.753C125.892 9.81299 127.936 11.7732 127.936 14.5768C128.002 15.6362 127.654 16.6811 126.959 17.5072C126.264 18.3334 125.273 18.8815 124.179 19.0444L128.055 25.0181H124.845L121.328 19.3407ZM122.374 12.1603H118.571V16.9926H122.374C122.721 17.0175 123.069 16.9735 123.398 16.8634C123.726 16.7533 124.027 16.5793 124.282 16.3525C124.537 16.1258 124.74 15.8509 124.879 15.5453C125.018 15.2397 125.09 14.9099 125.09 14.5764C125.09 14.243 125.018 13.9131 124.879 13.6075C124.74 13.3019 124.537 13.0271 124.282 12.8003C124.027 12.5735 123.726 12.3996 123.398 12.2895C123.069 12.1793 122.721 12.1354 122.374 12.1603Z" fill="white"/>
<path d="M138.209 20.8229C138.85 21.4848 139.626 22.0127 140.489 22.3736C141.353 22.7344 142.284 22.9205 143.226 22.92C145.508 22.92 146.412 21.8488 146.412 20.8492C146.412 19.4816 144.724 19.0714 142.798 18.5927C140.206 17.977 137.164 17.2474 137.164 14.0335C137.164 11.5262 139.47 9.58831 142.941 9.58831C144.029 9.5484 145.114 9.7152 146.134 10.0791C147.155 10.443 148.089 10.9968 148.885 11.7086L147.292 13.6919C146.062 12.554 144.412 11.9309 142.703 11.9595C141.062 11.9595 140.016 12.7122 140.016 13.8519C140.016 15.0371 141.633 15.4242 143.511 15.8806C146.126 16.5178 149.244 17.2936 149.244 20.5991C149.244 23.1295 147.389 25.2984 143.109 25.2984C141.918 25.3522 140.729 25.1648 139.619 24.7484C138.509 24.332 137.502 23.696 136.666 22.8818L138.209 20.8229Z" fill="white"/>
<path d="M153.948 9.81299H159.847C164.792 9.81299 168.144 12.9583 168.144 17.4267C168.144 21.895 164.792 25.0173 159.847 25.0173H153.948V9.81299ZM159.847 22.6692C160.573 22.7019 161.298 22.5885 161.975 22.3364C162.653 22.0842 163.268 21.6988 163.781 21.2049C164.294 20.7111 164.693 20.1198 164.953 19.4691C165.213 18.8184 165.329 18.1227 165.291 17.4267C165.291 14.486 163.389 12.1611 159.847 12.1611H156.732V22.6692H159.847Z" fill="white"/>
<path d="M176.512 18.6119L175.133 20.1619V25.0205H172.351V9.81299H175.133V17.0611L181.338 9.81299H184.785L178.343 16.9934L185.261 25.0173H181.837L176.512 18.6119Z" fill="white"/>
<path d="M13.9793 14.6762C13.9793 15.3134 14.8217 15.8256 15.8601 15.8256C16.8986 15.8256 17.741 15.3102 17.741 14.6762C17.741 14.0422 16.8986 13.5269 15.8601 13.5269C14.8217 13.5269 13.9793 14.0414 13.9793 14.6762ZM0 9.56272H2.26383V7.39307H0V9.56272ZM15.4713 7.39307H4.97877V9.56272H16.9916V7.39307H15.4713ZM4.43379 14.6762C4.43379 14.039 5.27618 13.5269 6.31464 13.5269C7.3531 13.5269 8.19549 14.0414 8.19549 14.6762C8.19549 15.311 7.35393 15.8256 6.31381 15.8256C5.27369 15.8256 4.43296 15.3102 4.43296 14.6762H4.43379ZM19.9109 7.39387V21.3708C19.9085 23.6137 18.9781 25.7642 17.324 27.3503C15.6698 28.9364 13.4269 29.8286 11.0874 29.8311V26.0972H8.79281C8.65864 26.0972 8.52596 26.0702 8.40336 26.0179C8.28076 25.9657 8.17096 25.8893 8.08106 25.7938C7.99117 25.6984 7.92318 25.5858 7.8815 25.4636C7.83982 25.3413 7.82537 25.212 7.83909 25.084C7.86922 24.8523 7.98773 24.6394 8.1718 24.4865C8.35587 24.3335 8.59247 24.2513 8.83601 24.2557H11.089V22.145C11.089 21.9916 11.0255 21.8445 10.9124 21.7361C10.7993 21.6276 10.6459 21.5667 10.4859 21.5667H9.28379C9.13087 21.5657 8.98065 21.528 8.84689 21.4569C8.71313 21.3859 8.60011 21.2838 8.51818 21.1599C8.43626 21.0361 8.38805 20.8946 8.37797 20.7483C8.3679 20.602 8.39627 20.4556 8.4605 20.3226L10.3713 16.4325C10.8429 15.472 11.0874 14.4236 11.0874 13.362V11.0896H0V21.3708C0 24.1898 1.16804 26.8934 3.24718 28.8868C5.32631 30.8801 8.14621 32 11.0866 32C14.0269 32 16.8468 30.8801 18.9259 28.8868C21.0051 26.8934 22.1731 24.1898 22.1731 21.3708V7.39307L19.9109 7.39387ZM2.82875 5.86619H4.97877V3.69653H2.82875V5.86619ZM15.1847 3.69653H9.95588V5.86619H16.9908V3.69653H15.1847ZM14.7286 2.16886H16.9908V0H14.7286V2.16886Z" fill="white"/>
</svg>
