<svg width="20" height="21" viewBox="0 0 20 21" fill="none" xmlns="http://www.w3.org/2000/svg">
<path fill-rule="evenodd" clip-rule="evenodd" d="M11.4897 3.88018C11.1097 2.3456 8.88975 2.3456 8.50975 3.88018C8.45302 4.11078 8.34174 4.32494 8.18497 4.50524C8.02821 4.68554 7.83038 4.82689 7.60759 4.91777C7.38481 5.00865 7.14336 5.04651 6.90289 5.02826C6.66242 5.01001 6.42973 4.93616 6.22375 4.81274C4.85175 3.99036 3.28175 5.53478 4.11775 6.88443C4.65775 7.75599 4.17875 8.89315 3.17075 9.13416C1.60975 9.50699 1.60975 11.6918 3.17075 12.0636C3.40523 12.1195 3.62298 12.2291 3.80626 12.3834C3.98955 12.5377 4.13319 12.7325 4.22549 12.9518C4.31779 13.171 4.35614 13.4086 4.33742 13.6453C4.3187 13.8819 4.24343 14.1108 4.11775 14.3134C3.28175 15.663 4.85175 17.2074 6.22375 16.3851C6.42969 16.2614 6.6624 16.1874 6.90293 16.169C7.14347 16.1506 7.38502 16.1883 7.60793 16.2791C7.83084 16.3699 8.02879 16.5112 8.18568 16.6915C8.34256 16.8718 8.45394 17.086 8.51075 17.3166C8.88975 18.8522 11.1108 18.8522 11.4888 17.3166C11.5457 17.0861 11.6572 16.872 11.8142 16.6919C11.9711 16.5117 12.169 16.3705 12.3918 16.2797C12.6147 16.1889 12.8561 16.1512 13.0966 16.1695C13.3371 16.1878 13.5698 16.2617 13.7758 16.3851C15.1478 17.2074 16.7178 15.663 15.8818 14.3134C15.7563 14.1107 15.6812 13.8819 15.6626 13.6453C15.644 13.4088 15.6824 13.1712 15.7747 12.952C15.8669 12.7328 16.0105 12.5381 16.1936 12.3837C16.3768 12.2294 16.5944 12.1197 16.8288 12.0636C18.3898 11.6908 18.3898 9.506 16.8288 9.13416C16.5943 9.07828 16.3765 8.96872 16.1932 8.81439C16.01 8.66006 15.8663 8.46533 15.774 8.24605C15.6817 8.02678 15.6434 7.78916 15.6621 7.55254C15.6808 7.31593 15.7561 7.08701 15.8818 6.88443C16.7178 5.53478 15.1478 3.99036 13.7758 4.81274C13.5698 4.93637 13.3371 5.01041 13.0966 5.02883C12.856 5.04725 12.6145 5.00952 12.3916 4.91872C12.1687 4.82793 11.9707 4.68662 11.8138 4.50633C11.6569 4.32603 11.5456 4.11183 11.4888 3.88117L11.4897 3.88018ZM9.99975 13.55C10.7954 13.55 11.5585 13.2391 12.1211 12.6857C12.6837 12.1322 12.9998 11.3816 12.9998 10.5989C12.9998 9.81622 12.6837 9.06559 12.1211 8.51215C11.5585 7.9587 10.7954 7.64778 9.99975 7.64778C9.2041 7.64778 8.44104 7.9587 7.87843 8.51215C7.31582 9.06559 6.99975 9.81622 6.99975 10.5989C6.99975 11.3816 7.31582 12.1322 7.87843 12.6857C8.44104 13.2391 9.2041 13.55 9.99975 13.55V13.55Z" fill="white"/>
</svg>
