<svg width="47" height="45" viewBox="0 0 47 45" fill="none" xmlns="http://www.w3.org/2000/svg">
<path d="M43.823 22.7122L46.8314 17.8264C46.9523 17.5827 46.9689 17.3031 46.8773 17.0514L40.9187 0.688106C40.7354 0.188738 40.1895 -0.0949026 39.6603 0.0289409L22.1472 4.11976C21.8138 4.19966 21.5388 4.42737 21.4096 4.73498L19.5471 9.20532H13.8677C13.5719 9.20532 13.2843 9.32517 13.0843 9.53291L0.283854 22.8281C-0.111995 23.2395 -0.0911596 23.8787 0.329689 24.2623L13.7552 36.5347C13.951 36.7185 14.2177 36.8184 14.4886 36.8184H20.6096L22.4764 41.2887C22.6139 41.6203 22.9222 41.856 23.2847 41.9159L41.9104 44.984C41.9688 44.996 42.0313 45 42.0896 45C42.5854 45 43.023 44.6724 43.1313 44.197L46.9106 27.598C46.9689 27.3424 46.9231 27.0747 46.7773 26.847L43.823 22.7122ZM19.5471 9.20532L34.581 6.56466L26.6682 21.4778H8.71334L19.5471 9.20532ZM20.6138 36.8184L8.71334 25.5686H26.6682L36.0019 39.0355L20.6138 36.8184ZM39.8812 36.7145L30.935 23.5232L38.7561 8.61008L43.823 22.7162L39.8812 36.7145Z" fill="white"/>
</svg>
