<svg width="53" height="45" viewBox="0 0 53 45" fill="none" xmlns="http://www.w3.org/2000/svg">
<path d="M0 29.4238C0 16.084 12.9869 2.79297 25.1793 0C25.1793 0 19.7808 4.11133 19.7808 6.92383C19.7808 12.5488 23.3764 10.3809 23.3764 10.3809C23.3764 10.3809 23.3764 31.4355 23.3764 32.8809C23.3764 34.3359 24.9959 34.6191 26.972 34.6191C28.948 34.6191 32.3704 32.2949 32.3704 32.2949C32.3704 32.2949 32.3704 15.8398 32.3704 13.8477C32.3704 11.8555 29.9157 9.59961 28.7749 8.65234C31.8204 8.65234 34.1631 10.3809 34.1631 10.3809C34.1631 10.3809 36.4855 6.05469 46.7528 3.4668C45.1943 5.3711 41.4154 10.4883 41.4154 12.2168C41.4154 13.9355 41.3645 30.8008 41.3645 31.7969C41.3645 32.793 42.5868 32.8809 43.3405 32.8809C44.0943 32.8809 48.2501 31.8359 52.1512 27.6953C52.1512 28.9551 45.6527 38.3496 37.7689 43.2715L32.3704 38.0762L26.972 45C26.972 45 15.9306 43.7305 10.7868 36.3477C12.1822 36.543 14.3823 36.6992 14.3823 34.6191C14.3823 32.5293 14.3823 18.6719 14.3823 17.3047C14.3823 15.9473 13.7304 15.3125 12.498 15.3125C11.2757 15.3125 6.63095 18.1641 0 29.4238Z" fill="white"/>
</svg>
